<svg xmlns="http://www.w3.org/2000/svg" xmlns:xlink="http://www.w3.org/1999/xlink" width="400" zoomAndPan="magnify" viewBox="0 0 300 299.999988" height="400" preserveAspectRatio="xMidYMid meet" version="1.0"><path fill="#000000" d="M 82.71875 247.046875 C 60.148438 223.304688 35.921875 198.425781 29.269531 191.578125 L 16.679688 179.023438 L 16.679688 103.46875 L 24.042969 99.132812 C 28.082031 96.621094 33.070312 93.425781 35.445312 92.285156 C 44.945312 86.578125 97.445312 53.710938 137.589844 28.371094 L 169.183594 8.511719 L 182.722656 21.753906 C 190.085938 29.285156 207.902344 47.546875 222.15625 62.382812 C 236.648438 77.449219 255.886719 97.535156 265.390625 106.894531 L 282.492188 124.242188 L 282.730469 155.285156 L 282.730469 186.328125 L 272.753906 193.175781 C 267.054688 196.828125 251.851562 207.101562 238.785156 215.546875 C 193.175781 245.449219 169.660156 260.96875 148.042969 275.351562 C 136.164062 283.109375 125.710938 289.730469 125.238281 289.730469 C 124.523438 289.730469 105.519531 270.554688 82.71875 247.046875 Z M 131.890625 236.316406 C 136.164062 223.078125 139.015625 212.121094 137.828125 212.121094 C 136.878906 212.121094 130.226562 214.632812 123.335938 217.601562 C 116.210938 220.566406 105.519531 224.90625 99.34375 227.1875 L 88.417969 231.753906 L 103.859375 248.1875 C 113.359375 258.230469 120.488281 263.9375 121.675781 262.796875 C 122.863281 261.65625 127.375 249.785156 131.890625 236.316406 Z M 209.089844 216.457031 C 209.089844 215.316406 168.472656 209.15625 158.257812 208.699219 C 156.59375 208.699219 138.066406 258.6875 137.828125 264.164062 C 137.828125 264.621094 153.980469 254.351562 173.460938 241.566406 C 193.175781 228.554688 209.089844 217.371094 209.089844 216.457031 Z M 120.722656 203.449219 L 130.9375 199.109375 L 112.171875 187.46875 L 93.167969 176.058594 L 91.980469 181.992188 C 91.269531 185.414062 89.84375 194.546875 89.128906 202.304688 L 87.46875 216.457031 L 98.871094 212.121094 C 105.285156 209.839844 115.023438 205.957031 120.722656 203.449219 Z M 76.777344 186.558594 C 78.203125 175.828125 78.203125 175.601562 71.789062 175.601562 C 59.199219 175.601562 40.433594 178.566406 40.433594 180.394531 C 40.433594 181.535156 47.558594 189.753906 56.347656 198.65625 L 72.503906 215.089844 L 73.925781 206.1875 C 74.878906 201.164062 76.066406 192.492188 76.777344 186.558594 Z M 248.285156 192.261719 C 267.527344 179.707031 268.476562 178.566406 268.476562 170.578125 L 268.476562 161.90625 L 247.8125 162.132812 C 236.171875 162.359375 219.066406 163.046875 209.804688 163.957031 L 192.464844 165.328125 L 209.328125 185.414062 C 218.355469 196.371094 226.433594 205.273438 227.144531 205.273438 C 227.859375 205.273438 237.359375 199.339844 248.285156 192.261719 Z M 199.351562 196.828125 C 195.789062 192.261719 186.285156 180.164062 183.4375 176.742188 C 182.484375 175.601562 176.308594 167.839844 169.894531 159.851562 L 158.019531 145.242188 L 157.304688 153.003906 C 156.832031 157.339844 157.070312 168.066406 158.019531 177.199219 L 159.683594 193.632812 L 171.796875 195.914062 C 178.683594 197.058594 186.285156 198.65625 188.898438 199.109375 C 191.511719 199.796875 195.550781 200.253906 198.164062 200.480469 C 201.964844 200.707031 202.203125 200.253906 199.351562 196.828125 Z M 143.292969 164.871094 C 141.628906 125.15625 143.054688 126.296875 121.199219 147.066406 L 102.195312 165.101562 L 121.910156 177.199219 C 132.601562 183.816406 142.101562 189.296875 142.816406 189.296875 C 143.765625 189.296875 144.003906 178.339844 143.292969 164.871094 Z M 64.902344 162.359375 C 71.316406 160.761719 71.316406 160.761719 52.3125 142.503906 L 33.308594 124.242188 L 33.308594 165.785156 L 45.898438 164.871094 C 52.546875 164.1875 61.101562 163.046875 64.902344 162.359375 Z M 86.992188 107.578125 C 89.128906 90.914062 90.554688 76.761719 89.84375 76.308594 C 89.367188 75.851562 77.492188 82.699219 63.238281 91.601562 L 37.582031 107.578125 L 59.675781 129.035156 C 80.816406 149.578125 82.003906 150.261719 82.480469 144.328125 C 82.953125 140.90625 84.855469 124.242188 86.992188 107.578125 Z M 115.023438 132.457031 L 133.550781 114.65625 L 121.910156 101.1875 C 115.5 93.882812 109.085938 85.894531 107.660156 83.382812 C 105.757812 80.1875 104.332031 86.121094 101.246094 109.632812 C 98.871094 126.523438 96.496094 142.503906 95.78125 145.46875 C 95.070312 148.207031 95.070312 150.492188 95.542969 150.492188 C 96.019531 150.492188 104.808594 142.503906 115.023438 132.457031 Z M 219.070312 133.144531 L 219.78125 115.566406 L 189.375 116.707031 C 172.746094 117.394531 158.492188 118.535156 157.78125 119.21875 C 157.070312 119.90625 162.058594 127.207031 168.707031 135.425781 L 181.0625 150.492188 L 218.117188 150.492188 Z M 268.476562 139.992188 C 268.476562 133.144531 265.863281 129.261719 252.5625 114.882812 L 236.410156 97.761719 L 234.984375 111.003906 C 234.035156 118.308594 233.320312 129.71875 233.082031 136.339844 L 232.847656 148.207031 L 268.476562 148.207031 Z M 202.203125 102.558594 L 220.96875 102.558594 L 220.96875 96.164062 C 220.96875 89.546875 220.730469 89.546875 197.925781 85.894531 C 185.097656 83.839844 171.320312 81.558594 167.285156 80.644531 C 160.632812 79.503906 159.683594 79.960938 158.492188 86.121094 C 157.78125 89.773438 156.355469 95.707031 155.40625 99.132812 L 153.742188 105.523438 L 168.707031 104.15625 C 177.023438 103.242188 191.988281 102.558594 202.203125 102.558594 Z M 148.515625 67.175781 C 153.03125 49.828125 156.355469 35.21875 156.117188 34.992188 C 155.644531 34.535156 145.191406 40.699219 132.601562 48.460938 L 109.796875 62.839844 L 124.289062 81.328125 C 132.363281 91.371094 139.253906 99.589844 139.492188 99.132812 C 139.964844 98.90625 144.003906 84.523438 148.515625 67.175781 Z M 210.515625 71.285156 C 209.328125 70.144531 200.539062 61.011719 190.5625 50.742188 L 172.507812 31.796875 L 168.234375 48.230469 C 165.859375 57.132812 164.433594 65.121094 165.144531 65.578125 C 166.808594 67.175781 196.5 72.199219 205.289062 72.65625 C 209.089844 72.65625 211.46875 72.199219 210.515625 71.285156 Z M 210.515625 71.285156 " fill-opacity="1" fill-rule="nonzero"/></svg>