<svg xmlns="http://www.w3.org/2000/svg" xmlns:xlink="http://www.w3.org/1999/xlink" width="400" zoomAndPan="magnify" viewBox="0 0 300 299.999988" height="400" preserveAspectRatio="xMidYMid meet" version="1.0"><path fill="#ffffff" d="M 82.957031 247.101562 C 60.386719 223.355469 36.152344 198.46875 29.5 191.621094 L 16.90625 179.0625 L 16.90625 103.492188 L 24.269531 99.15625 C 28.308594 96.644531 33.300781 93.445312 35.675781 92.304688 C 45.179688 86.597656 97.691406 53.71875 137.84375 28.378906 L 169.445312 8.515625 L 182.988281 21.757812 C 190.355469 29.289062 208.171875 47.554688 222.429688 62.394531 C 236.921875 77.464844 256.167969 97.554688 265.671875 106.917969 L 282.78125 124.269531 L 283.019531 155.320312 L 283.019531 186.371094 L 273.039062 193.21875 C 267.335938 196.871094 252.128906 207.144531 239.0625 215.59375 C 193.441406 245.503906 169.921875 261.027344 148.296875 275.410156 C 136.417969 283.175781 125.964844 289.796875 125.488281 289.796875 C 124.777344 289.796875 105.769531 270.617188 82.957031 247.101562 Z M 132.140625 236.371094 C 136.417969 223.128906 139.269531 212.167969 138.082031 212.167969 C 137.132812 212.167969 130.476562 214.679688 123.585938 217.648438 C 116.460938 220.617188 105.769531 224.953125 99.589844 227.238281 L 88.660156 231.804688 L 104.105469 248.242188 C 113.609375 258.289062 120.738281 263.996094 121.925781 262.855469 C 123.113281 261.714844 127.628906 249.839844 132.140625 236.371094 Z M 209.363281 216.507812 C 209.363281 215.367188 168.730469 209.199219 158.515625 208.746094 C 156.851562 208.746094 138.320312 258.746094 138.082031 264.222656 C 138.082031 264.679688 154.238281 254.40625 173.722656 241.621094 C 193.441406 228.609375 209.363281 217.421875 209.363281 216.507812 Z M 120.972656 203.492188 L 131.191406 199.15625 L 112.421875 187.511719 L 93.414062 176.09375 L 92.226562 182.03125 C 91.511719 185.457031 90.085938 194.589844 89.375 202.351562 L 87.710938 216.507812 L 99.113281 212.167969 C 105.53125 209.886719 115.273438 206.003906 120.972656 203.492188 Z M 77.019531 186.597656 C 78.445312 175.867188 78.445312 175.640625 72.027344 175.640625 C 59.4375 175.640625 40.664062 178.605469 40.664062 180.433594 C 40.664062 181.574219 47.792969 189.792969 56.585938 198.699219 L 72.742188 215.136719 L 74.167969 206.234375 C 75.117188 201.210938 76.304688 192.535156 77.019531 186.597656 Z M 248.566406 192.304688 C 267.8125 179.75 268.761719 178.605469 268.761719 170.617188 L 268.761719 161.941406 L 248.089844 162.167969 C 236.449219 162.398438 219.339844 163.082031 210.074219 163.996094 L 192.730469 165.363281 L 209.597656 185.457031 C 218.628906 196.414062 226.707031 205.320312 227.417969 205.320312 C 228.132812 205.320312 237.636719 199.382812 248.566406 192.304688 Z M 199.621094 196.871094 C 196.054688 192.304688 186.550781 180.207031 183.699219 176.78125 C 182.75 175.640625 176.574219 167.875 170.15625 159.886719 L 158.277344 145.273438 L 157.566406 153.035156 C 157.089844 157.375 157.328125 168.105469 158.277344 177.238281 L 159.941406 193.675781 L 172.058594 195.957031 C 178.949219 197.101562 186.550781 198.699219 189.164062 199.15625 C 191.777344 199.839844 195.820312 200.296875 198.433594 200.523438 C 202.234375 200.753906 202.472656 200.296875 199.621094 196.871094 Z M 143.546875 164.910156 C 141.882812 125.183594 143.308594 126.324219 121.449219 147.101562 L 102.441406 165.136719 L 122.164062 177.238281 C 132.855469 183.859375 142.359375 189.335938 143.070312 189.335938 C 144.023438 189.335938 144.257812 178.378906 143.546875 164.910156 Z M 65.136719 162.398438 C 71.554688 160.796875 71.554688 160.796875 52.546875 142.535156 L 33.539062 124.269531 L 33.539062 165.820312 L 46.128906 164.910156 C 52.78125 164.222656 61.335938 163.082031 65.136719 162.398438 Z M 87.234375 107.601562 C 89.375 90.933594 90.800781 76.78125 90.085938 76.324219 C 89.609375 75.867188 77.730469 82.714844 63.476562 91.621094 L 37.8125 107.601562 L 59.910156 129.0625 C 81.058594 149.613281 82.246094 150.296875 82.71875 144.359375 C 83.195312 140.9375 85.097656 124.269531 87.234375 107.601562 Z M 115.273438 132.488281 L 133.804688 114.679688 L 122.164062 101.210938 C 115.746094 93.902344 109.332031 85.914062 107.90625 83.402344 C 106.003906 80.203125 104.578125 86.140625 101.492188 109.65625 C 99.113281 126.550781 96.738281 142.535156 96.027344 145.5 C 95.3125 148.242188 95.3125 150.523438 95.789062 150.523438 C 96.265625 150.523438 105.054688 142.535156 115.273438 132.488281 Z M 219.339844 133.171875 L 220.054688 115.59375 L 189.640625 116.734375 C 173.007812 117.417969 158.753906 118.5625 158.039062 119.246094 C 157.328125 119.929688 162.316406 127.238281 168.96875 135.457031 L 181.324219 150.523438 L 218.390625 150.523438 Z M 268.761719 140.023438 C 268.761719 133.171875 266.148438 129.292969 252.84375 114.90625 L 236.6875 97.785156 L 235.261719 111.027344 C 234.308594 118.332031 233.597656 129.75 233.359375 136.371094 L 233.121094 148.242188 L 268.761719 148.242188 Z M 202.472656 102.578125 L 221.242188 102.578125 L 221.242188 96.1875 C 221.242188 89.566406 221.003906 89.566406 198.195312 85.914062 C 185.363281 83.855469 171.582031 81.574219 167.542969 80.660156 C 160.890625 79.519531 159.941406 79.976562 158.753906 86.140625 C 158.039062 89.792969 156.613281 95.730469 155.664062 99.15625 L 154 105.546875 L 168.96875 104.175781 C 177.285156 103.265625 192.253906 102.578125 202.472656 102.578125 Z M 148.773438 67.191406 C 153.289062 49.839844 156.613281 35.226562 156.375 35 C 155.902344 34.542969 145.445312 40.707031 132.855469 48.46875 L 110.042969 62.851562 L 124.539062 81.347656 C 132.617188 91.390625 139.507812 99.609375 139.746094 99.15625 C 140.21875 98.925781 144.257812 84.542969 148.773438 67.191406 Z M 210.789062 71.300781 C 209.597656 70.160156 200.808594 61.027344 190.828125 50.753906 L 172.769531 31.800781 L 168.496094 48.242188 C 166.117188 57.144531 164.691406 65.136719 165.40625 65.59375 C 167.070312 67.191406 196.769531 72.214844 205.558594 72.671875 C 209.363281 72.671875 211.738281 72.214844 210.789062 71.300781 Z M 210.789062 71.300781 " fill-opacity="1" fill-rule="nonzero"/></svg>