<svg width="324" height="400" xmlns="http://www.w3.org/2000/svg" preserveAspectRatio="xMidYMid meet">

 <g>
  <title>background</title>
  <rect fill="none" id="canvas_background" height="402" width="326" y="-1" x="-1"/>
 </g>
 <g>
  <title>Layer 1</title>
  <g stroke="null" fill="#000000" id="layer1">
   <path stroke="null" id="svg_1" d="m0.240565,379.46897l0,-14.401196l2.550986,0l2.550986,0l0,14.401196l0,14.401196l-2.550986,0l-2.550986,0l0,-14.401196z"/>
   <path stroke="null" id="svg_2" d="m37.867608,381.613829l0,-12.256337l-3.507606,0l-3.507606,0l0,-2.144859l0,-2.144859l9.247324,0l9.247324,0l0,2.144859l0,2.144859l-3.507606,0l-3.507606,0l0,12.256337l0,12.256337l-2.232113,0l-2.232113,0l0,-12.256337z"/>
   <path stroke="null" id="svg_3" d="m71.030426,393.502476c0,-0.36769 2.550986,-6.005605 6.058592,-13.420689c0.765296,-1.654606 2.040789,-4.289718 2.678535,-5.82176c4.145352,-9.008408 4.910648,-10.417887 5.357071,-9.988915c0.573972,0.551535 13.010028,26.473689 13.647775,28.373421c0.382648,1.10307 0.063775,1.225634 -2.104563,1.225634c-2.487211,0 -2.614761,-0.061282 -4.017803,-3.370493l-1.466817,-3.370493l-6.122366,0l-6.122366,0l-1.721916,3.370493c-1.594366,3.125366 -1.849465,3.370493 -3.954028,3.370493c-1.211718,0 -2.232113,-0.183845 -2.232113,-0.36769zm17.856902,-10.601732c0,-0.306408 -0.892845,-2.389986 -1.977014,-4.657408l-2.040789,-4.105873l-0.765296,1.715887c-0.446423,0.980507 -1.403042,3.064084 -2.168338,4.71869l-1.275493,2.880239l4.081578,0c2.295887,0 4.145352,-0.245127 4.145352,-0.551535z"/>
   <path stroke="null" id="svg_4" d="m123.963385,379.46897l0,-14.401196l4.464225,0c4.783099,0 7.716733,0.857944 10.076395,3.002803c2.040789,1.899732 1.977014,6.066887 -0.191324,8.518154c-1.594366,1.777169 -1.594366,1.899732 -0.382648,2.267422c0.701521,0.183845 2.040789,1.225634 2.933634,2.206141c2.232113,2.635113 2.232113,6.495859 -0.063775,9.130971c-2.678535,3.002803 -4.655549,3.676901 -11.096789,3.676901l-5.739718,0l0,-14.401196zm9.948845,10.111478c2.232113,-0.857944 3.380056,-2.328704 3.443831,-4.473563c0,-2.022296 -3.061183,-4.105873 -6.186141,-4.105873l-2.104563,0l0,4.596127c0,4.473563 0.063775,4.596127 1.530592,4.596127c0.892845,0 2.359662,-0.306408 3.316282,-0.612817zm-0.063775,-14.401196c0.892845,-0.796662 1.594366,-1.838451 1.594366,-2.328704c0,-1.225634 -2.550986,-3.309211 -4.591775,-3.799465l-1.78569,-0.428972l0,4.044591c0,3.922028 0.063775,4.044591 1.594366,4.044591c0.892845,0 2.359662,-0.674099 3.188732,-1.532042z"/>
   <path stroke="null" id="svg_5" d="m169.243386,379.46897l0,-14.401196l2.232113,0l2.232113,0l0,12.562746l0,12.562746l5.101972,0l5.101972,0l0,1.838451l0,1.838451l-7.334085,0l-7.334085,0l0,-14.401196z"/>
   <path stroke="null" id="svg_6" d="m208.145922,379.46897l0,-14.401196l8.609578,0l8.609578,0l0,2.144859l0,2.144859l-6.377465,0l-6.377465,0l0,3.370493l0,3.370493l6.377465,0l6.377465,0l0,2.144859l0,2.144859l-6.377465,0l-6.377465,0l0,4.902535l0,4.902535l6.377465,0l6.377465,0l0,1.838451l0,1.838451l-8.609578,0l-8.609578,0l0,-14.401196z"/>
   <path stroke="null" id="svg_7" d="m251.512684,379.407688l0,-14.462478l5.994817,0.245127c5.612169,0.183845 6.186141,0.306408 8.482028,2.083577c4.974423,3.860746 4.145352,10.785577 -1.594366,13.481971l-2.74231,1.225634l3.57138,5.147662c4.846873,6.802267 4.783099,6.740986 1.721916,6.740986c-2.550986,0 -2.614761,-0.061282 -6.632564,-5.82176l-4.017803,-5.883042l-0.191324,5.883042l-0.191324,5.82176l-2.168338,0l-2.232113,0l0,-14.462478zm9.056,-1.47076c5.931042,-1.593324 4.591775,-7.905338 -1.849465,-8.824563l-2.74231,-0.36769l0,4.902535c0,5.45407 0,5.45407 4.591775,4.289718z"/>
   <path stroke="null" id="svg_8" d="m296.601361,386.393801c1.913239,-4.167155 3.69893,-8.089183 4.017803,-8.763281c0.318873,-0.674099 1.849465,-3.922028 3.380056,-7.231239c1.594366,-3.309211 3.061183,-6.005605 3.380056,-6.066887c0.255099,0 2.933634,5.08638 5.803493,11.27583c2.933634,6.128169 6.058592,12.685309 6.887662,14.462478c0.892845,1.777169 1.594366,3.370493 1.594366,3.493056c0,0.183845 -1.084169,0.306408 -2.423437,0.306408c-2.295887,0 -2.487211,-0.183845 -4.145352,-3.370493l-1.721916,-3.370493l-6.058592,0l-6.122366,0l-1.530592,3.370493c-1.530592,3.247929 -1.658141,3.370493 -4.081578,3.370493l-2.487211,0l3.507606,-7.476366zm14.668169,-3.676901c-0.191324,-0.428972 -1.084169,-2.512549 -2.104563,-4.657408l-1.721916,-3.860746l-2.168338,4.412281c-1.147944,2.389986 -2.104563,4.473563 -2.104563,4.596127c0,0.122563 1.913239,0.245127 4.209127,0.245127c3.124958,0 4.145352,-0.183845 3.890254,-0.73538z"/>
   <path stroke="null" id="svg_9" d="m31.490143,344.783535c6.122366,-0.183845 62.69048,-0.428972 125.636059,-0.428972c62.945579,0 119.513693,0.245127 125.636059,0.428972c6.122366,0.245127 -50.381973,0.428972 -125.636059,0.428972c-75.254086,0 -131.758426,-0.183845 -125.636059,-0.428972z"/>
   <path stroke="null" id="svg_10" d="m119.626709,316.900368c-4.591775,-1.164352 -6.505014,-2.206141 -9.885071,-5.392788c-8.354479,-7.782774 -12.244733,-26.228562 -10.01262,-47.615871c1.849465,-17.342717 4.017803,-26.657534 14.349296,-60.913997c8.22693,-27.392914 10.140169,-36.094913 10.203944,-46.574082c0,-11.520957 -2.678535,-15.99452 -9.566197,-15.871957c-5.229521,0.122563 -16.45386,5.760479 -23.150198,11.766084c-0.446423,0.36769 -1.084169,0.73538 -1.339268,0.73538c-0.446423,0 -12.180958,-16.607337 -12.180958,-17.281436c0,-0.551535 18.112,-12.378901 22.958874,-15.075295c1.211718,-0.674099 4.272902,-2.267422 6.696338,-3.61562c10.84169,-5.944324 20.918085,-10.111478 32.206198,-13.175563c5.739718,-1.593324 7.844282,-1.838451 14.668169,-1.899732c6.951437,-0.061282 8.418254,0.122563 11.479437,1.348197c7.844282,3.125366 12.818705,8.579436 15.49724,17.097591c1.147944,3.493056 1.339268,5.760479 1.339268,15.136577c0,15.075295 -1.403042,22.919351 -10.203944,56.379152c-4.336676,16.546055 -5.101972,19.24245 -9.18355,32.785702c-6.887662,22.796787 -9.056,34.86928 -7.716733,42.284364c1.466817,7.844056 5.48462,9.376098 13.71155,5.270225c6.058592,-3.064084 10.331493,-6.250732 19.897691,-15.197858l4.528,-4.228436l3.443831,6.312014c1.913239,3.431774 4.272902,8.089183 5.229521,10.295323l1.78569,3.98331l-5.038197,4.596127c-5.548394,5.147662 -17.28293,14.278633 -25.956282,20.34552c-13.647775,9.498661 -27.486874,16.117084 -38.26479,18.323224c-6.760113,1.348197 -10.84169,1.409479 -15.49724,0.183845zm5.293296,-3.738183c-0.255099,-0.612817 -1.658141,-4.412281 -3.124958,-8.518154l-2.678535,-7.415084l-2.487211,1.10307c-1.403042,0.551535 -4.081578,1.654606 -5.867268,2.451267c-1.849465,0.73538 -3.380056,1.532042 -3.380056,1.654606c0,0.183845 0.892845,1.654606 1.977014,3.309211c3.380056,5.025098 8.928451,8.273028 14.221747,8.395591c1.466817,0.061282 1.721916,-0.122563 1.339268,-0.980507zm9.438648,-6.434577l3.061183,-4.167155l-3.507606,-1.47076c-1.913239,-0.796662 -4.145352,-1.654606 -4.974423,-1.899732c-0.765296,-0.245127 -2.487211,-0.980507 -3.762704,-1.593324l-2.359662,-1.10307l2.423437,6.55714c1.339268,3.61562 2.74231,7.476366 3.188732,8.579436l0.765296,1.961014l1.084169,-1.348197c0.573972,-0.796662 2.423437,-3.247929 4.081578,-5.515352zm9.885071,3.676901c3.635155,-1.348197 6.44124,-2.573831 6.377465,-2.696394c-0.127549,-0.122563 -2.295887,-0.980507 -4.846873,-2.022296l-4.591775,-1.777169l-1.211718,1.654606c-0.637746,0.857944 -2.232113,3.064084 -3.507606,4.841253l-2.359662,3.247929l1.78569,-0.428972c1.020394,-0.183845 4.719324,-1.47076 8.354479,-2.818958zm15.433465,-12.930436c1.849465,-3.98331 3.188732,-7.415084 2.997409,-7.537647c-0.191324,-0.183845 -3.69893,1.10307 -7.908057,2.818958c-5.867268,2.389986 -7.971831,3.61562 -9.374873,5.270225c-1.020394,1.225634 -1.530592,2.451267 -1.275493,2.696394c1.020394,0.980507 11.415662,4.779972 11.862085,4.412281c0.255099,-0.245127 1.913239,-3.676901 3.69893,-7.660211zm12.436057,-2.512549c2.678535,-1.838451 4.591775,-3.431774 4.336676,-3.61562c-0.255099,-0.183845 -2.295887,-0.490253 -4.464225,-0.73538c-2.232113,-0.245127 -4.145352,-0.490253 -4.400451,-0.490253c-0.191324,-0.061282 -1.466817,2.389986 -2.806085,5.515352l-2.423437,5.637915l2.487211,-1.532042c1.403042,-0.796662 4.655549,-3.002803 7.27031,-4.779972zm-32.142423,-3.61562c-3.635155,-3.493056 -2.869859,-3.554338 -10.203944,0.612817l-3.443831,1.961014l2.168338,0.919225c1.211718,0.490253 4.145352,1.715887 6.632564,2.696394l4.464225,1.777169l1.78569,-2.451267l1.849465,-2.451267l-3.252507,-3.064084zm-26.33893,4.105873c1.466817,-0.551535 2.678535,-1.225634 2.678535,-1.47076c0,-0.73538 -12.818705,-10.54045 -13.201352,-10.17276c-0.191324,0.183845 0.255099,3.61562 1.084169,7.660211l1.466817,7.292521l2.614761,-1.10307c1.466817,-0.612817 3.826479,-1.593324 5.357071,-2.206141zm19.132395,-9.621225c0.637746,-0.490253 0,-1.409479 -2.869859,-4.228436l-3.635155,-3.554338l-1.78569,6.250732c-0.95662,3.493056 -1.78569,6.495859 -1.78569,6.740986c0,0.428972 8.418254,-3.922028 10.076395,-5.208943zm21.938479,2.880239c2.933634,-1.164352 5.803493,-2.328704 6.44124,-2.573831c0.892845,-0.36769 0.573972,-1.041789 -2.614761,-4.779972l-3.635155,-4.289718l-2.997409,6.924831c-1.594366,3.799465 -2.869859,6.924831 -2.74231,6.924831c0.127549,0 2.614761,-0.980507 5.548394,-2.206141zm-33.673015,-6.250732c1.020394,-3.799465 1.721916,-7.047394 1.594366,-7.169957c-0.191324,-0.183845 -16.708958,2.941521 -18.685972,3.554338c-0.255099,0.061282 1.721916,1.838451 4.464225,3.799465c2.74231,2.022296 6.122366,4.596127 7.461634,5.699197c1.403042,1.10307 2.74231,1.777169 2.933634,1.532042c0.255099,-0.245127 1.211718,-3.61562 2.232113,-7.415084zm24.617015,6.55714c0,-0.612817 3.826479,-9.743788 6.505014,-15.381703c0.765296,-1.654606 1.211718,-3.064084 1.020394,-3.247929c-0.191324,-0.183845 -4.336676,0.490253 -9.18355,1.47076c-4.910648,0.980507 -10.395268,1.961014 -12.308507,2.206141l-3.380056,0.428972l8.163155,7.905338c7.397859,7.108676 9.18355,8.395591 9.18355,6.618422zm32.525071,-7.905338c-1.211718,-3.676901 -2.359662,-6.740986 -2.550986,-6.740986c-0.255099,0 -5.803493,9.43738 -6.887662,11.704802c-0.191324,0.36769 6.632564,1.532042 10.076395,1.715887l1.594366,0.061282l-2.232113,-6.740986zm-10.331493,-1.348197l2.040789,-3.493056l-3.061183,0.857944c-1.658141,0.490253 -3.635155,0.919225 -4.464225,0.919225c-1.403042,0 -1.403042,0.122563 0.892845,2.757676c1.275493,1.532042 2.423437,2.696394 2.487211,2.635113c0.063775,-0.122563 1.020394,-1.777169 2.104563,-3.676901zm26.211381,-1.654606l3.380056,-3.002803l-3.954028,-0.428972c-2.104563,-0.245127 -4.017803,-0.306408 -4.209127,-0.122563c-0.510197,0.428972 -2.168338,6.679704 -2.168338,7.966619c0,1.041789 0.127549,1.041789 1.78569,-0.122563c0.95662,-0.674099 3.252507,-2.635113 5.165747,-4.289718zm-9.247324,-2.818958c0.382648,-1.47076 0.255099,-1.532042 -2.168338,-1.532042c-2.232113,0 -2.614761,0.183845 -2.295887,1.10307c0.127549,0.551535 0.82907,2.696394 1.466817,4.657408l1.147944,3.676901l0.701521,-3.186648c0.446423,-1.777169 0.95662,-3.922028 1.147944,-4.71869zm-74.48879,-1.532042c8.035606,-1.532042 9.757521,-2.022296 9.821296,-2.635113c0.063775,-0.245127 -3.443831,-4.228436 -7.780507,-8.824563l-7.844282,-8.334309l-0.446423,2.696394c-0.892845,5.392788 -1.339268,18.323224 -0.701521,18.323224c0.382648,0 3.507606,-0.551535 6.951437,-1.225634zm88.901861,-2.880239c0,-0.306408 -1.403042,-3.186648 -3.061183,-6.495859l-3.124958,-6.005605l-1.020394,3.860746c-0.573972,2.144859 -1.211718,4.902535 -1.466817,6.128169c-0.382648,2.206141 -0.318873,2.267422 1.78569,2.512549c3.890254,0.428972 6.887662,0.428972 6.887662,0zm-59.1191,-2.083577c5.293296,-1.041789 9.757521,-2.022296 9.885071,-2.083577c0.127549,-0.122563 -2.678535,-2.083577 -6.186141,-4.351c-3.57138,-2.267422 -6.568789,-3.98331 -6.696338,-3.860746c-0.191324,0.245127 -6.760113,10.846859 -7.206535,11.766084c-0.382648,0.612817 -0.637746,0.674099 10.203944,-1.47076zm-13.71155,-0.061282c0.82907,-1.593324 2.869859,-4.963817 5.48462,-9.253535c1.020394,-1.593324 1.721916,-3.064084 1.594366,-3.186648c-0.191324,-0.183845 -8.482028,-1.10307 -21.683381,-2.389986l-2.295887,-0.245127l1.339268,1.348197c2.550986,2.573831 11.288113,11.949929 12.563606,13.481971c1.594366,1.961014 2.104563,1.961014 2.997409,0.245127zm60.330818,-0.551535c0.892845,-4.289718 0.637746,-4.289718 -4.081578,-0.36769l-2.806085,2.267422l3.252507,0c3.124958,0 3.252507,-0.061282 3.635155,-1.899732zm-34.502085,-10.17276c0.255099,-2.635113 0.637746,-6.128169 0.82907,-7.782774l0.446423,-3.002803l-6.31369,4.167155c-3.443831,2.328704 -6.377465,4.228436 -6.44124,4.289718c-0.318873,0.183845 7.525409,5.208943 8.09938,5.208943c0.255099,0 0.82907,0.428972 1.275493,0.919225c1.403042,1.593324 1.721916,1.041789 2.104563,-3.799465zm-21.045634,-7.660211c-4.719324,-5.208943 -5.548394,-6.005605 -6.249916,-6.005605c-0.82907,0 -9.821296,4.596127 -10.777916,5.515352c-0.255099,0.245127 2.040789,0.674099 5.101972,0.919225c3.124958,0.245127 7.078986,0.674099 8.864676,0.919225c1.721916,0.245127 3.57138,0.490253 4.081578,0.551535c0.446423,0 0.063775,-0.796662 -1.020394,-1.899732zm16.900282,-4.105873l6.887662,-4.534845l-5.293296,-4.902535c-8.290704,-7.721493 -7.461634,-7.844056 -8.737127,1.899732c-1.211718,9.621225 -1.275493,12.562746 -0.382648,12.256337c0.382648,-0.122563 3.762704,-2.206141 7.525409,-4.71869zm-32.971494,-1.348197l6.887662,-3.799465l-1.211718,-1.593324c-0.701521,-0.857944 -3.380056,-3.738183 -5.931042,-6.373295l-4.655549,-4.841253l-2.040789,8.211746c-1.147944,4.473563 -2.232113,9.253535 -2.487211,10.54045c-0.382648,2.267422 -0.318873,2.389986 1.020394,2.022296c0.82907,-0.183845 4.591775,-2.083577 8.418254,-4.167155zm22.831324,-14.462478l0.063775,-2.022296l-5.229521,0c-2.933634,0 -8.163155,-0.183845 -11.670761,-0.428972l-6.377465,-0.36769l7.971831,8.211746c4.336676,4.534845 9.119775,9.43738 10.522817,10.846859l2.550986,2.696394l1.084169,-8.518154c0.573972,-4.657408 1.084169,-9.376098 1.084169,-10.417887zm20.535437,-0.919225c2.487211,-7.905338 2.487211,-8.150464 -0.510197,-6.740986c-1.339268,0.674099 -3.57138,1.532042 -4.974423,1.961014c-1.403042,0.428972 -3.635155,1.286915 -5.038197,1.961014l-2.423437,1.225634l5.293296,4.779972c3.826479,3.431774 5.420845,4.473563 5.548394,3.738183c0.127549,-0.551535 1.020394,-3.61562 2.104563,-6.924831zm-21.747155,-5.025098c0,-0.612817 -10.650366,-12.501464 -11.160564,-12.440182c-0.892845,0.122563 -9.821296,11.64352 -9.438648,12.256337c0.255099,0.428972 20.599212,0.674099 20.599212,0.183845zm21.364508,-5.699197c1.403042,-0.490253 2.614761,-0.980507 2.74231,-1.041789c0.063775,-0.122563 -2.232113,-2.144859 -5.101972,-4.473563l-5.293296,-4.289718l-2.423437,6.802267c-1.275493,3.738183 -2.359662,6.986112 -2.359662,7.169957c0,0.245127 2.232113,-0.428972 4.974423,-1.409479c2.678535,-0.980507 6.058592,-2.267422 7.461634,-2.757676zm-14.157972,-2.818958c1.275493,-3.860746 2.359662,-7.108676 2.359662,-7.292521c0,-0.183845 -0.637746,-0.245127 -1.403042,-0.122563c-6.568789,0.857944 -11.925859,1.593324 -13.073803,1.899732c-1.275493,0.306408 -1.020394,0.796662 3.762704,6.373295c2.806085,3.309211 5.357071,6.066887 5.548394,6.066887c0.191324,0 1.466817,-3.125366 2.806085,-6.924831zm-27.869522,1.10307c1.721916,-2.206141 4.081578,-5.208943 5.165747,-6.618422c2.040789,-2.512549 2.104563,-2.635113 2.040789,-9.008408c-0.063775,-3.554338 -0.255099,-8.089183 -0.510197,-10.111478l-0.382648,-3.676901l-1.78569,6.128169c-1.020394,3.370493 -2.487211,8.211746 -3.316282,10.724295c-1.977014,6.250732 -4.783099,15.62683 -4.783099,16.117084c0,0.857944 0.573972,0.306408 3.57138,-3.554338zm47.894762,-5.944324c0.382648,-1.47076 1.466817,-5.515352 2.423437,-9.008408c0.892845,-3.493056 1.594366,-6.373295 1.466817,-6.495859c-0.127549,-0.122563 -2.232113,1.225634 -4.783099,2.941521c-2.550986,1.777169 -5.931042,4.044591 -7.525409,5.08638l-2.933634,1.961014l4.846873,4.044591c2.678535,2.206141 5.038197,4.044591 5.357071,4.044591c0.255099,0 0.765296,-1.164352 1.147944,-2.573831zm-23.532846,-5.699197c3.762704,-0.490253 6.823887,-0.919225 6.887662,-0.919225c0.063775,0 -2.232113,-12.378901 -2.74231,-14.952732l-0.510197,-2.267422l-7.015211,9.06969c-9.119775,11.704802 -8.609578,10.846859 -5.739718,10.356605c1.275493,-0.245127 5.420845,-0.857944 9.119775,-1.286915zm-6.249916,-11.64352c3.507606,-4.534845 6.568789,-8.579436 6.760113,-9.06969c0.191324,-0.612817 -0.892845,-1.225634 -3.69893,-2.083577c-2.232113,-0.674099 -5.548394,-1.838451 -7.334085,-2.573831l-3.380056,-1.286915l0,5.147662c0,5.515352 0.701521,18.139379 1.020394,18.139379c0.127549,0 3.061183,-3.738183 6.632564,-8.273028zm21.364508,5.270225c1.78569,-1.164352 4.846873,-3.247929 6.887662,-4.657408l3.635155,-2.573831l-3.954028,-1.348197c-2.232113,-0.73538 -6.31369,-2.144859 -9.056,-3.125366c-2.806085,-0.980507 -5.165747,-1.715887 -5.229521,-1.654606c-0.063775,0.061282 0.382648,2.757676 1.020394,5.944324c0.637746,3.186648 1.339268,6.863549 1.594366,8.150464c0.446423,2.512549 0.191324,2.573831 5.101972,-0.73538zm14.987043,-11.766084c0,-0.612817 0.573972,-3.186648 1.275493,-5.576633c1.466817,-5.147662 1.530592,-5.637915 0.573972,-5.08638c-0.382648,0.245127 -4.655549,1.777169 -9.566197,3.370493c-4.910648,1.593324 -9.056,3.002803 -9.247324,3.186648c-0.382648,0.428972 15.816113,5.883042 16.517634,5.576633c0.255099,-0.122563 0.446423,-0.796662 0.446423,-1.47076zm-27.805747,-14.462478c-0.255099,-4.351 -0.510197,-7.905338 -0.573972,-8.027901c-0.063775,-0.061282 -3.188732,2.206141 -6.951437,5.147662c-3.762704,2.880239 -6.760113,5.331507 -6.632564,5.45407c0.127549,0.122563 2.614761,1.041789 5.612169,2.144859c2.997409,1.041789 5.994817,2.144859 6.696338,2.451267c0.701521,0.306408 1.530592,0.551535 1.78569,0.551535c0.255099,0.061282 0.318873,-3.431774 0.063775,-7.721493zm26.33893,1.041789l2.104563,-0.73538l-1.466817,-1.838451c-0.765296,-1.041789 -1.977014,-2.573831 -2.678535,-3.554338c-0.701521,-0.919225 -2.168338,-2.818958 -3.252507,-4.228436l-2.040789,-2.512549l-5.229521,8.395591c-2.933634,4.657408 -5.675944,9.06969 -6.186141,9.743788c-0.82907,1.225634 0,1.041789 7.908057,-1.593324c4.846873,-1.593324 9.757521,-3.247929 10.84169,-3.676901zm-16.071212,-6.18945c3.380056,-5.392788 5.994817,-9.988915 5.803493,-10.17276c-0.765296,-0.73538 -13.456451,-8.089183 -13.647775,-7.905338c-0.063775,0.122563 0.127549,4.167155 0.446423,9.008408c0.382648,4.841253 0.701521,11.091985 0.701521,13.910943c0,2.757676 0.127549,5.025098 0.255099,5.025098c0.127549,0 3.061183,-4.412281 6.44124,-9.866352zm-17.346705,-2.941521c6.823887,-5.45407 6.568789,-4.963817 5.675944,-12.133774l-0.446423,-3.186648l-6.505014,3.799465c-6.505014,3.799465 -6.568789,3.799465 -6.568789,6.250732c0,2.512549 -1.020394,9.498661 -1.721916,11.582239c-0.318873,1.10307 -0.255099,1.10307 1.466817,-0.122563c1.020394,-0.674099 4.655549,-3.493056 8.09938,-6.18945zm39.348959,3.799465c1.020394,-3.370493 4.464225,-23.225759 4.464225,-25.493182l-0.063775,-1.961014l-2.678535,3.064084c-1.466817,1.654606 -4.910648,5.45407 -7.589183,8.395591l-4.910648,5.392788l4.910648,6.373295c2.678535,3.493056 4.974423,6.434577 5.038197,6.434577c0.063775,0.061282 0.446423,-0.980507 0.82907,-2.206141zm-18.23955,-23.225759c-1.913239,-4.351 -3.954028,-8.947126 -4.591775,-10.234042l-1.084169,-2.328704l-2.678535,6.005605c-2.359662,5.515352 -2.550986,6.128169 -1.594366,7.108676c0.510197,0.551535 1.211718,1.041789 1.466817,1.041789c0.255099,0 2.997409,1.532042 6.058592,3.370493c3.061183,1.838451 5.675944,3.247929 5.803493,3.186648c0.063775,-0.122563 -1.403042,-3.738183 -3.380056,-8.150464zm-24.808339,4.657408c1.403042,-0.796662 3.635155,-1.961014 4.974423,-2.573831c2.678535,-1.348197 2.869859,-1.838451 1.275493,-3.431774c-0.637746,-0.551535 -2.869859,-3.002803 -4.974423,-5.331507c-2.104563,-2.389986 -4.528,-5.025098 -5.357071,-5.944324l-1.530592,-1.654606l-2.487211,3.61562l-2.487211,3.554338l2.168338,2.144859c2.104563,2.144859 4.272902,7.537647 4.272902,10.785577c0,1.10307 0.191324,1.286915 0.82907,0.796662c0.382648,-0.306408 1.913239,-1.225634 3.316282,-1.961014zm36.734198,-2.880239c6.823887,-7.782774 6.760113,-7.660211 5.293296,-7.169957c-1.849465,0.551535 -12.627381,4.71869 -12.946254,4.963817c-0.191324,0.122563 0.318873,1.47076 1.084169,2.941521c0.765296,1.532042 1.403042,3.186648 1.403042,3.676901c0,0.490253 0.127549,0.919225 0.255099,0.919225c0.127549,0 2.359662,-2.389986 4.910648,-5.331507zm-73.595945,-7.905338c-0.255099,-0.306408 -10.905465,-1.409479 -11.160564,-1.225634c-0.191324,0.245127 4.719324,7.537647 6.186141,9.130971c0.892845,0.980507 1.084169,0.73538 3.061183,-3.309211c1.147944,-2.451267 2.040789,-4.534845 1.913239,-4.596127zm5.803493,2.573831c1.275493,-0.796662 3.69893,-1.961014 5.357071,-2.573831c1.721916,-0.674099 3.061183,-1.286915 2.997409,-1.47076c-0.063775,-0.428972 -5.675944,-4.902535 -6.186141,-4.902535c-0.255099,0 -0.82907,0.73538 -1.211718,1.715887c-0.382648,0.919225 -1.403042,3.247929 -2.359662,5.208943c-0.892845,1.899732 -1.466817,3.493056 -1.339268,3.493056c0.191324,0 1.403042,-0.674099 2.74231,-1.47076zm44.769804,-6.18945c1.466817,-3.370493 2.806085,-6.373295 2.933634,-6.740986c0.191324,-0.428972 -2.550986,-0.490253 -7.844282,-0.183845c-4.528,0.183845 -8.864676,0.36769 -9.693747,0.428972c-1.403042,0.061282 -1.275493,0.36769 1.913239,3.61562c1.913239,1.899732 4.719324,4.963817 6.31369,6.740986c1.530592,1.777169 2.997409,3.002803 3.188732,2.757676c0.255099,-0.306408 1.658141,-3.247929 3.188732,-6.618422zm19.897691,3.493056c2.550986,-0.980507 5.612169,-2.144859 6.760113,-2.573831c2.614761,-0.980507 1.977014,-1.715887 -2.232113,-2.818958c-1.658141,-0.428972 -6.122366,-1.777169 -9.885071,-2.880239l-6.823887,-2.144859l1.530592,3.186648c0.765296,1.715887 2.104563,4.596127 2.933634,6.373295c0.892845,1.961014 1.78569,3.125366 2.232113,2.941521c0.446423,-0.183845 2.869859,-1.10307 5.48462,-2.083577zm-45.790198,-6.005605c1.721916,-2.206141 2.933634,-4.105873 2.806085,-4.289718c-0.510197,-0.428972 -15.816113,1.164352 -15.816113,1.715887c0,0.245127 0.191324,0.490253 0.510197,0.490253c0.255099,0 2.040789,1.409479 3.954028,3.064084c1.913239,1.715887 3.954028,3.064084 4.464225,3.064084c0.573972,0 2.423437,-1.777169 4.081578,-4.044591zm-20.407888,-1.777169c1.020394,-2.022296 2.232113,-4.534845 2.678535,-5.637915l0.892845,-1.961014l-2.295887,1.348197c-1.211718,0.73538 -2.74231,1.654606 -3.316282,1.961014c-3.316282,1.899732 -10.203944,6.740986 -9.948845,7.047394c0.446423,0.36769 6.505014,1.10307 8.545803,0.980507c1.275493,-0.061282 1.913239,-0.796662 3.443831,-3.738183zm80.037185,-4.044591c-1.913239,-11.827366 -6.44124,-17.894253 -15.879888,-21.0809l-2.487211,-0.857944l-1.403042,4.167155l-1.403042,4.167155l2.806085,2.451267c6.31369,5.515352 18.558423,15.565548 18.813522,15.320422c0.127549,-0.122563 -0.063775,-1.961014 -0.446423,-4.167155zm-8.609578,2.389986c-0.191324,-0.428972 -3.443831,-3.309211 -7.142761,-6.434577l-6.823887,-5.576633l-1.211718,3.370493c-0.701521,2.083577 -0.95662,3.554338 -0.573972,3.922028c0.318873,0.306408 4.017803,1.654606 8.22693,2.941521c4.145352,1.348197 7.652958,2.389986 7.716733,2.451267c0.063775,0.061282 0,-0.306408 -0.191324,-0.674099zm-54.144677,-4.289718c3.890254,-0.36769 7.078986,-0.73538 7.206535,-0.796662c0.382648,-0.306408 1.977014,-11.582239 1.658141,-11.888647c-0.191324,-0.183845 -3.890254,1.409479 -8.290704,3.493056c-7.525409,3.676901 -8.035606,4.044591 -9.502423,6.924831l-1.594366,3.002803l1.721916,0c1.020394,0 4.974423,-0.306408 8.800902,-0.73538zm30.739381,-0.73538c0.127549,-0.061282 -3.762704,-2.635113 -8.609578,-5.699197c-5.420845,-3.431774 -8.864676,-5.270225 -9.119775,-4.841253c-0.255099,0.36769 -0.637746,2.451267 -0.82907,4.657408c-0.255099,2.206141 -0.637746,4.596127 -0.82907,5.331507l-0.318873,1.409479l9.757521,-0.36769c5.420845,-0.245127 9.885071,-0.490253 9.948845,-0.490253zm5.931042,-8.763281c1.084169,-3.309211 2.423437,-7.169957 2.869859,-8.640718l0.95662,-2.696394l-4.336676,0.428972c-4.336676,0.428972 -14.668169,2.696394 -18.494648,3.98331c-1.78569,0.612817 -1.977014,0.919225 -1.275493,1.593324c1.211718,1.10307 17.219155,11.27583 17.856902,11.27583c0.255099,0 1.339268,-2.696394 2.423437,-5.944324z"/>
   <path stroke="null" id="svg_11" d="m153.172174,64.971354c-6.058592,-6.373295 -12.563606,-13.052999 -14.349296,-14.89145l-3.380056,-3.370493l0,-10.111478l0,-10.17276l1.977014,-1.164352c1.084169,-0.674099 2.423437,-1.532042 3.061183,-1.838451c2.550986,-1.532042 16.645183,-10.356605 27.423099,-17.158872l8.482028,-5.331507l3.635155,3.554338c1.977014,2.022296 6.760113,6.924831 10.586592,10.90814c3.890254,4.044591 9.056,9.43738 11.606986,11.949929l4.591775,4.657408l0.063775,8.334309l0,8.334309l-2.678535,1.838451c-1.530592,0.980507 -5.612169,3.738183 -9.119775,6.005605c-12.244733,8.027901 -18.558423,12.195056 -24.361916,16.055802c-3.188732,2.083577 -5.994817,3.860746 -6.122366,3.860746c-0.191324,0 -5.293296,-5.147662 -11.415662,-11.459675zm13.201352,-2.880239c1.147944,-3.554338 1.913239,-6.495859 1.594366,-6.495859c-0.255099,0 -2.040789,0.674099 -3.890254,1.47076c-1.913239,0.796662 -4.783099,1.961014 -6.44124,2.573831l-2.933634,1.225634l4.145352,4.412281c2.550986,2.696394 4.464225,4.228436 4.783099,3.922028c0.318873,-0.306408 1.530592,-3.493056 2.74231,-7.108676zm20.726761,-5.331507c0,-0.306408 -10.905465,-1.961014 -13.647775,-2.083577c-0.446423,0 -5.420845,13.420689 -5.48462,14.89145c0,0.122563 4.336676,-2.635113 9.566197,-6.066887c5.293296,-3.493056 9.566197,-6.495859 9.566197,-6.740986zm-23.72417,-3.493056l2.74231,-1.164352l-5.038197,-3.125366l-5.101972,-3.064084l-0.318873,1.593324c-0.191324,0.919225 -0.573972,3.370493 -0.765296,5.45407l-0.446423,3.799465l3.061183,-1.164352c1.721916,-0.612817 4.336676,-1.654606 5.867268,-2.328704zm-11.79831,-4.534845c0.382648,-2.880239 0.382648,-2.941521 -1.339268,-2.941521c-3.380056,0 -8.418254,0.796662 -8.418254,1.286915c0,0.306408 1.913239,2.512549 4.272902,4.902535l4.336676,4.412281l0.382648,-2.389986c0.255099,-1.348197 0.573972,-3.676901 0.765296,-5.270225zm46.045297,1.532042c5.165747,-3.370493 5.420845,-3.676901 5.420845,-5.82176l0,-2.328704l-5.548394,0.061282c-3.124958,0.061282 -7.716733,0.245127 -10.203944,0.490253l-4.655549,0.36769l4.528,5.392788c2.423437,2.941521 4.591775,5.331507 4.783099,5.331507c0.191324,0 2.74231,-1.593324 5.675944,-3.493056zm-13.137578,1.225634c-0.95662,-1.225634 -3.507606,-4.473563 -4.272902,-5.392788c-0.255099,-0.306408 -1.913239,-2.389986 -3.635155,-4.534845l-3.188732,-3.922028l-0.191324,2.083577c-0.127549,1.164352 -0.063775,4.044591 0.191324,6.495859l0.446423,4.412281l3.252507,0.612817c1.849465,0.306408 3.890254,0.73538 4.591775,0.857944c0.701521,0.183845 1.78569,0.306408 2.487211,0.36769c1.020394,0.061282 1.084169,-0.061282 0.318873,-0.980507zm-15.050817,-8.579436c-0.446423,-10.663013 -0.063775,-10.356605 -5.931042,-4.779972l-5.101972,4.841253l5.293296,3.247929c2.869859,1.777169 5.420845,3.247929 5.612169,3.247929c0.255099,0 0.318873,-2.941521 0.127549,-6.55714zm-21.045634,-0.674099c1.721916,-0.428972 1.721916,-0.428972 -3.380056,-5.331507l-5.101972,-4.902535l0,5.576633l0,5.576633l3.380056,-0.245127c1.78569,-0.183845 4.081578,-0.490253 5.101972,-0.674099zm5.931042,-14.707605c0.573972,-4.473563 0.95662,-8.273028 0.765296,-8.395591c-0.127549,-0.122563 -3.316282,1.715887 -7.142761,4.105873l-6.887662,4.289718l5.931042,5.760479c5.675944,5.515352 5.994817,5.699197 6.122366,4.105873c0.127549,-0.919225 0.637746,-5.392788 1.211718,-9.866352zm7.525409,6.679704l4.974423,-4.779972l-3.124958,-3.61562c-1.721916,-1.961014 -3.443831,-4.105873 -3.826479,-4.779972c-0.510197,-0.857944 -0.892845,0.73538 -1.721916,7.047394c-0.637746,4.534845 -1.275493,8.824563 -1.466817,9.621225c-0.191324,0.73538 -0.191324,1.348197 -0.063775,1.348197c0.127549,0 2.487211,-2.144859 5.229521,-4.841253zm27.933296,0.183845l0.191324,-4.71869l-8.163155,0.306408c-4.464225,0.183845 -8.290704,0.490253 -8.482028,0.674099c-0.191324,0.183845 1.147944,2.144859 2.933634,4.351l3.316282,4.044591l4.974423,0l4.974423,0l0.255099,-4.657408zm13.265127,1.838451c0,-1.838451 -0.701521,-2.880239 -4.272902,-6.740986l-4.336676,-4.596127l-0.382648,3.554338c-0.255099,1.961014 -0.446423,5.025098 -0.510197,6.802267l-0.063775,3.186648l4.783099,0l4.783099,0l0,-2.206141zm-17.793127,-10.050197l5.038197,0l0,-1.715887c0,-1.777169 -0.063775,-1.777169 -6.186141,-2.757676c-3.443831,-0.551535 -7.142761,-1.164352 -8.22693,-1.409479c-1.78569,-0.306408 -2.040789,-0.183845 -2.359662,1.47076c-0.191324,0.980507 -0.573972,2.573831 -0.82907,3.493056l-0.446423,1.715887l4.017803,-0.36769c2.232113,-0.245127 6.249916,-0.428972 8.992226,-0.428972zm-14.413071,-9.498661c1.211718,-4.657408 2.104563,-8.579436 2.040789,-8.640718c-0.127549,-0.122563 -2.933634,1.532042 -6.31369,3.61562l-6.122366,3.860746l3.890254,4.963817c2.168338,2.696394 4.017803,4.902535 4.081578,4.779972c0.127549,-0.061282 1.211718,-3.922028 2.423437,-8.579436zm16.645183,1.10307c-0.318873,-0.306408 -2.678535,-2.757676 -5.357071,-5.515352l-4.846873,-5.08638l-1.147944,4.412281c-0.637746,2.389986 -1.020394,4.534845 -0.82907,4.657408c0.446423,0.428972 8.418254,1.777169 10.777916,1.899732c1.020394,0 1.658141,-0.122563 1.403042,-0.36769z"/>
  </g>
 </g>
</svg>